<svg id="visual" viewBox="0 0 900 600" width="900" height="600" xmlns="http://www.w3.org/2000/svg" xmlns:xlink="http://www.w3.org/1999/xlink" version="1.1"><path d="M0 85L100 91L200 55L300 61L400 97L500 85L600 37L700 91L800 61L900 67L900 0L800 0L700 0L600 0L500 0L400 0L300 0L200 0L100 0L0 0Z" fill="#392340"></path><path d="M0 163L100 181L200 109L300 157L400 205L500 175L600 109L700 163L800 115L900 181L900 65L800 59L700 89L600 35L500 83L400 95L300 59L200 53L100 89L0 83Z" fill="#2c1d33"></path><path d="M0 379L100 301L200 271L300 319L400 295L500 325L600 373L700 355L800 289L900 385L900 179L800 113L700 161L600 107L500 173L400 203L300 155L200 107L100 179L0 161Z" fill="#201726"></path><path d="M0 523L100 481L200 445L300 547L400 463L500 481L600 523L700 469L800 475L900 547L900 383L800 287L700 353L600 371L500 323L400 293L300 317L200 269L100 299L0 377Z" fill="#151019"></path><path d="M0 601L100 601L200 601L300 601L400 601L500 601L600 601L700 601L800 601L900 601L900 545L800 473L700 467L600 521L500 479L400 461L300 545L200 443L100 479L0 521Z" fill="#060507"></path></svg>