<svg id="visual" viewBox="0 0 900 600" width="900" height="600" xmlns="http://www.w3.org/2000/svg" xmlns:xlink="http://www.w3.org/1999/xlink" version="1.1"><path d="M0 61L100 67L200 91L300 97L400 55L500 97L600 55L700 67L800 79L900 73L900 0L800 0L700 0L600 0L500 0L400 0L300 0L200 0L100 0L0 0Z" fill="#cc78ce"></path><path d="M0 295L100 343L200 181L300 247L400 211L500 175L600 301L700 199L800 235L900 175L900 71L800 77L700 65L600 53L500 95L400 53L300 95L200 89L100 65L0 59Z" fill="#a362a9"></path><path d="M0 367L100 427L200 271L300 301L400 325L500 271L600 421L700 313L800 307L900 217L900 173L800 233L700 197L600 299L500 173L400 209L300 245L200 179L100 341L0 293Z" fill="#7d4c85"></path><path d="M0 541L100 541L200 487L300 517L400 457L500 469L600 541L700 457L800 469L900 451L900 215L800 305L700 311L600 419L500 269L400 323L300 299L200 269L100 425L0 365Z" fill="#5a3762"></path><path d="M0 601L100 601L200 601L300 601L400 601L500 601L600 601L700 601L800 601L900 601L900 449L800 467L700 455L600 539L500 467L400 455L300 515L200 485L100 539L0 539Z" fill="#392340"></path></svg>