<svg id="visual" viewBox="0 0 900 600" width="900" height="600" xmlns="http://www.w3.org/2000/svg" xmlns:xlink="http://www.w3.org/1999/xlink" version="1.1"><path d="M0 67L82 85L164 49L245 43L327 73L409 79L491 31L573 85L655 49L736 37L818 91L900 79L900 0L818 0L736 0L655 0L573 0L491 0L409 0L327 0L245 0L164 0L82 0L0 0Z" fill="#005e8f"></path><path d="M0 121L82 139L164 121L245 97L327 133L409 163L491 91L573 151L655 115L736 85L818 139L900 139L900 77L818 89L736 35L655 47L573 83L491 29L409 77L327 71L245 41L164 47L82 83L0 65Z" fill="#0c4c7c"></path><path d="M0 265L82 313L164 199L245 271L327 265L409 301L491 241L573 331L655 289L736 229L818 211L900 301L900 137L818 137L736 83L655 113L573 149L491 89L409 161L327 131L245 95L164 119L82 137L0 119Z" fill="#113b69"></path><path d="M0 337L82 385L164 253L245 379L327 313L409 343L491 355L573 409L655 361L736 331L818 319L900 385L900 299L818 209L736 227L655 287L573 329L491 239L409 299L327 263L245 269L164 197L82 311L0 263Z" fill="#122b55"></path><path d="M0 505L82 493L164 457L245 547L327 469L409 469L491 481L573 487L655 517L736 493L818 547L900 493L900 383L818 317L736 329L655 359L573 407L491 353L409 341L327 311L245 377L164 251L82 383L0 335Z" fill="#101c42"></path><path d="M0 601L82 601L164 601L245 601L327 601L409 601L491 601L573 601L655 601L736 601L818 601L900 601L900 491L818 545L736 491L655 515L573 485L491 479L409 467L327 467L245 545L164 455L82 491L0 503Z" fill="#0d0c2f"></path></svg>