<svg id="visual" viewBox="0 0 900 600" width="900" height="600" xmlns="http://www.w3.org/2000/svg" xmlns:xlink="http://www.w3.org/1999/xlink" version="1.1"><path d="M0 163L129 181L257 139L386 169L514 193L643 175L771 145L900 187L900 0L771 0L643 0L514 0L386 0L257 0L129 0L0 0Z" fill="#f5730a"></path><path d="M0 235L129 271L257 211L386 223L514 271L643 259L771 241L900 241L900 185L771 143L643 173L514 191L386 167L257 137L129 179L0 161Z" fill="#eb6028"></path><path d="M0 289L129 325L257 259L386 289L514 313L643 313L771 295L900 289L900 239L771 239L643 257L514 269L386 221L257 209L129 269L0 233Z" fill="#dd4f38"></path><path d="M0 355L129 379L257 325L386 343L514 373L643 361L771 361L900 361L900 287L771 293L643 311L514 311L386 287L257 257L129 323L0 287Z" fill="#ca4243"></path><path d="M0 529L129 493L257 475L386 487L514 529L643 475L771 487L900 481L900 359L771 359L643 359L514 371L386 341L257 323L129 377L0 353Z" fill="#b5394a"></path><path d="M0 601L129 601L257 601L386 601L514 601L643 601L771 601L900 601L900 479L771 485L643 473L514 527L386 485L257 473L129 491L0 527Z" fill="#9e334e"></path></svg>