<?xml version="1.0" standalone="no"?><svg xmlns="http://www.w3.org/2000/svg" viewBox="0 0 1440 320"><path fill="#00cba9" fill-opacity="1" d="M0,224L17.1,197.3C34.3,171,69,117,103,101.3C137.1,85,171,107,206,117.3C240,128,274,128,309,144C342.9,160,377,192,411,218.7C445.7,245,480,267,514,245.3C548.6,224,583,160,617,165.3C651.4,171,686,245,720,256C754.3,267,789,213,823,192C857.1,171,891,181,926,160C960,139,994,85,1029,90.7C1062.9,96,1097,160,1131,192C1165.7,224,1200,224,1234,197.3C1268.6,171,1303,117,1337,96C1371.4,75,1406,85,1423,90.7L1440,96L1440,320L1422.9,320C1405.7,320,1371,320,1337,320C1302.9,320,1269,320,1234,320C1200,320,1166,320,1131,320C1097.1,320,1063,320,1029,320C994.3,320,960,320,926,320C891.4,320,857,320,823,320C788.6,320,754,320,720,320C685.7,320,651,320,617,320C582.9,320,549,320,514,320C480,320,446,320,411,320C377.1,320,343,320,309,320C274.3,320,240,320,206,320C171.4,320,137,320,103,320C68.6,320,34,320,17,320L0,320Z"></path></svg>